<svg id="Capa_1" enable-background="new 0 0 501 501" height="512" viewBox="0 0 501 501" width="512" xmlns="http://www.w3.org/2000/svg"><g><path d="m25.237 352.5c-12.703-29.614-19.737-62.235-19.737-96.5 0-135.31 109.69-245 245-245s245 109.69 245 245c0 34.265-7.034 66.886-19.737 96.5z" fill="#a6d2e3"/><path d="m480.721 340c-20.946 57.393-62.742 104.753-116.221 132.917-21.653-20.854-50.546-32.505-80.608-32.505h-194.695c-30.713-26.887-54.652-61.323-68.918-100.412h369.221v-112.08c-8.829-3.858-15-12.668-15-22.92 0-2.95.511-5.781 1.45-8.408l-23.84-23.84c-18.048 17.027-42.431 27.412-69.239 27.247-54.993-.339-99.789-45.788-99.367-100.781.419-54.655 44.683-98.872 99.356-99.215 55.005-.345 100.353 44.46 100.64 99.465.113 21.654-6.657 41.721-18.249 58.141l24.406 24.406c3.704-1.588 7.869-2.308 12.238-1.902 12.018 1.118 21.643 10.945 22.535 22.982.82 11.056-5.557 20.731-14.929 24.826v112.079z" fill="#7fbed7"/><path d="m363.5 100c0 44.183-35.817 80-80 80s-80-35.817-80-80 35.817-80 80-80 80 35.817 80 80zm36 95c-5.523 0-10 4.477-10 10s4.477 10 10 10 10-4.477 10-10-4.477-10-10-10z" fill="#3993b7"/><path d="m284.134 84.399c-12.26 0-22.199-9.939-22.199-22.2 0-12.26 9.939-22.199 22.199-22.199s22.2 9.939 22.2 22.199c0 12.261-9.939 22.2-22.2 22.2zm-32.348 12.685c-12.26 0-22.2 9.939-22.2 22.199 0 12.261 9.939 22.2 22.2 22.2 12.26 0 22.199-9.939 22.199-22.2.001-12.26-9.938-22.199-22.199-22.199zm63.428 0c-12.26 0-22.199 9.939-22.199 22.199 0 12.261 9.939 22.2 22.199 22.2s22.2-9.939 22.2-22.2c-.001-12.26-9.94-22.199-22.2-22.199z" fill="#ffde91"/><path d="m337.413 119.284c0 2.879-.548 5.63-1.546 8.154-2.524.998-5.275 1.545-8.154 1.545-12.26 0-22.199-9.939-22.199-22.2 0-2.879.548-5.629 1.545-8.154 2.524-.998 5.275-1.545 8.154-1.545 12.261 0 22.2 9.939 22.2 22.2zm-85.627-22.2c-2.879 0-5.63.548-8.154 1.545-.997 2.524-1.545 5.275-1.545 8.154 0 12.261 9.939 22.2 22.2 22.2 2.879 0 5.63-.548 8.154-1.545.997-2.524 1.546-5.275 1.546-8.154-.001-12.261-9.94-22.2-22.201-22.2zm32.348-57.084c-2.879 0-5.63.548-8.154 1.545-.997 2.524-1.545 5.275-1.545 8.154 0 12.261 9.939 22.2 22.199 22.2 2.879 0 5.63-.548 8.154-1.545.997-2.524 1.546-5.275 1.546-8.154 0-12.261-9.939-22.2-22.2-22.2z" fill="#fcf2b6"/><path d="m299.5 460h-140c-13.807 0-25-11.193-25-25v-90c0-13.807 11.193-25 25-25h140c13.807 0 25 11.193 25 25v90c0 13.807-11.193 25-25 25z" fill="#d3d3d8"/><path d="m299.5 460h-100c-13.807 0-25-11.193-25-25v-30c0-13.807 11.193-25 25-25h100c13.807 0 25 11.193 25 25v30c0 13.807-11.193 25-25 25z" fill="#ececf1"/><path d="m364.5 455v17.917c-34.052 17.933-72.841 28.083-114 28.083-61.775 0-118.209-22.863-161.304-60.588 4.539-6.306 11.942-10.412 20.304-10.412h230c13.807 0 25 11.193 25 25z" fill="#d3d3d8"/><path d="m174.5 488.983c-31.786-10.362-60.716-27.048-85.304-48.572 4.539-6.305 11.942-10.411 20.304-10.411h65z" fill="#b9b9be"/><path d="m354.493 436.5h-19.208c-9.534 0-17.742-6.729-19.612-16.078l-14.784-73.922h-166.389c-11.046 0-30.167-19-30-36.5.071-7.504.001-69.998.001-69.998l-15.216-76.08c-1.75-8.75 2.469-17.084 9.551-21.218 1.288-.751 1.289-2.661.001-3.411-5.949-3.466-9.947-9.913-9.947-17.293v-70c0-11.046 8.954-20 20-20h20c11.046 0 20 8.954 20 20v70c0 9.01-5.958 16.628-14.15 19.13 6.509 2.291 11.56 7.868 12.976 14.947l22 110c1.644 8.22-1.98 16.075-8.298 20.422h171.075c9.534 0 17.742 6.729 19.612 16.078l22 110c2.475 12.377-6.991 23.923-19.612 23.923z" fill="#2b3894"/><path d="m357.706 436.245c-8.127-1.308-14.764-7.536-16.422-15.823l-13.853-69.265c-.482-2.41 1.361-4.658 3.818-4.658 7.318 0 13.25-5.933 13.25-13.25 0-7.318-5.932-13.25-13.25-13.25h-191.074c-5.494 0-10.095-4.406-10.066-9.9 0-.033 0-.066.001-.1.071-7.504.001-69.998.001-69.998l-15.216-76.08c-1.75-8.75 2.469-17.084 9.551-21.218 1.288-.751 1.289-2.661.001-3.411-5.949-3.466-9.947-9.913-9.947-17.293v-69.999c0-10.094 7.477-18.441 17.195-19.805 9.718 1.364 17.195 9.711 17.195 19.805v70c0 7.51-4.139 14.052-10.26 17.472-1.357.758-1.418 2.653-.092 3.464 4.628 2.833 8.053 7.512 9.179 13.142l22 110c1.286 6.433-.653 12.641-4.585 17.121-1.129 1.287-.203 3.302 1.509 3.302h165.854c9.534 0 17.742 6.729 19.612 16.078l22 110c2.258 11.299-5.438 21.908-16.401 23.666z" fill="#3342ae"/><path d="m234.5 225h-100c-20.678 0-37.5 16.822-37.5 37.5v50c0 20.678 16.822 37.5 37.5 37.5h100c20.678 0 37.5-16.822 37.5-37.5v-50c0-20.678-16.822-37.5-37.5-37.5zm22.5 87.5c0 12.406-10.094 22.5-22.5 22.5h-100c-12.407 0-22.5-10.094-22.5-22.5v-50c0-12.406 10.093-22.5 22.5-22.5h100c12.406 0 22.5 10.094 22.5 22.5z" fill="#fff5f5"/><path d="m294.5 252.5h-220c-5.523 0-10-4.477-10-10v-10c0-5.523 4.477-10 10-10h220c5.523 0 10 4.477 10 10v10c0 5.523-4.477 10-10 10zm110 177.5v-10c0-5.523-4.477-10-10-10h-80c-5.523 0-10 4.477-10 10v10c0 5.523 4.477 10 10 10h80c5.523 0 10-4.477 10-10z" fill="#3d4ec6"/><path d="m294.5 252.5h-167c-5.523 0-10-4.477-10-10v-10c0-5.523 4.477-10 10-10h167c5.523 0 10 4.477 10 10v10c0 5.523-4.477 10-10 10zm110 177.5v-10c0-5.523-4.477-10-10-10h-35.5c-5.523 0-10 4.477-10 10v10c0 5.523 4.477 10 10 10h35.5c5.523 0 10-4.477 10-10z" fill="#5766ce"/></g></svg>