<svg id="Flat" height="512" viewBox="0 0 512 512" width="512" xmlns="http://www.w3.org/2000/svg"><path d="m312 144c-17.608 0-24 14.353-24 24a8 8 0 0 0 16 .095 12.035 12.035 0 0 1 1.313-4.815c.893-1.622 2.386-3.28 6.688-3.28s5.8 1.658 6.688 3.28a12.059 12.059 0 0 1 1.311 4.72v32a8 8 0 0 0 16 0v-32c0-9.647-6.392-24-24-24z" fill="#d9dbdd"/><path d="m184.007 336a7.991 7.991 0 0 1 -6.663-3.563l-32-48a8 8 0 1 1 13.312-8.876l32 48a8 8 0 0 1 -6.649 12.439z" fill="#3a98e4"/><path d="m392 256a8 8 0 0 1 -8-8v-160a56.063 56.063 0 0 0 -56-56h-74.745a23.839 23.839 0 0 0 -16.97 7.029l-30.628 30.628a8 8 0 0 1 -11.314-11.314l30.628-30.627a39.732 39.732 0 0 1 28.284-11.716h74.745a72.081 72.081 0 0 1 72 72v160a8 8 0 0 1 -8 8z" fill="#d9dbdd"/><path d="m232 248h176v80h-176z" fill="#3a98e4"/><path d="m280 456-40-56 56-32 40 56 16 24-64 24z" fill="#368fd6"/><path d="m400 360c-96-8-136 64-184 64s-56-48-56-48v-24l128-48 120 40z" fill="#3a98e4"/><g fill="#a4d4f4"><path d="m76.506 174.621 6.393-4.8a16 16 0 0 1 22.62 3.5l61.395 85.954a16 16 0 0 1 -3.42 22.1l-6.393 4.795a16 16 0 0 1 -22.62-3.5l-61.395-85.95a16 16 0 0 1 3.42-22.099z"/><path d="m36.506 118.621 6.393-4.8a16 16 0 0 1 22.62 3.5l21.395 29.959a16 16 0 0 1 -3.42 22.1l-6.393 4.8a16 16 0 0 1 -22.62-3.5l-21.4-29.954a16 16 0 0 1 3.425-22.105z"/><path d="m159.056 330.145 119-46.276a32 32 0 0 1 20.226-.991l168.978 47.314a24 24 0 0 1 17.2 27.056l-.015.089a24 24 0 0 1 -30.394 19.094l-166.051-48.431-128 48-10-25a16 16 0 0 1 9.056-20.855z"/></g><path d="m216 200h144a0 0 0 0 1 0 0 48 48 0 0 1 -48 48h-48a48 48 0 0 1 -48-48 0 0 0 0 1 0 0z" fill="#e8edf1"/><path d="m280 488h-128a16 16 0 0 1 -16-16 16 16 0 0 1 16-16h128l112-56 74 59.2a16 16 0 0 1 6 12.494v.306a16 16 0 0 1 -16 16z" fill="#a4d4f4"/><path d="m212.285 108.284a40.553 40.553 0 0 1 -6.223 5.091l-55.437-55.437a40.553 40.553 0 0 1 5.091-6.223 40 40 0 0 1 56.569 56.569z" fill="#e8edf1"/></svg>