<?xml version="1.0" encoding="iso-8859-1"?>
<!-- Generator: Adobe Illustrator 19.0.0, SVG Export Plug-In . SVG Version: 6.00 Build 0)  -->
<svg version="1.1" id="Capa_1" xmlns="http://www.w3.org/2000/svg" xmlns:xlink="http://www.w3.org/1999/xlink" x="0px" y="0px"
	 viewBox="0 0 512 512" style="enable-background:new 0 0 512 512;" xml:space="preserve">
<path style="fill:#ECF0F1;" d="M483.31,512H28.69C12.844,512,0,499.156,0,483.31V105.931h512V483.31
	C512,499.156,499.156,512,483.31,512z"/>
<path style="fill:#687492;" d="M512,105.931H0V28.69C0,12.844,12.844,0,28.69,0H483.31C499.156,0,512,12.844,512,28.69V105.931z"/>
<rect x="35.31" y="35.31" style="fill:#E64C3C;" width="35.31" height="35.31"/>
<rect x="105.931" y="35.31" style="fill:#F0C419;" width="35.31" height="35.31"/>
<rect x="176.552" y="35.31" style="fill:#24AE5F;" width="35.31" height="35.31"/>
<g>
	<path style="fill:#BDC3C7;" d="M238.345,344.276H44.138c-4.873,0-8.828-3.955-8.828-8.828s3.955-8.828,8.828-8.828h194.207
		c4.873,0,8.828,3.955,8.828,8.828S243.218,344.276,238.345,344.276z"/>
	<path style="fill:#BDC3C7;" d="M238.345,379.586H44.138c-4.873,0-8.828-3.955-8.828-8.828c0-4.873,3.955-8.828,8.828-8.828h194.207
		c4.873,0,8.828,3.955,8.828,8.828C247.172,375.631,243.218,379.586,238.345,379.586z"/>
	<path style="fill:#BDC3C7;" d="M185.379,308.966H44.138c-4.873,0-8.828-3.955-8.828-8.828c0-4.873,3.955-8.828,8.828-8.828h141.241
		c4.873,0,8.828,3.955,8.828,8.828C194.207,305.011,190.252,308.966,185.379,308.966z"/>
	<path style="fill:#BDC3C7;" d="M238.345,414.897H44.138c-4.873,0-8.828-3.955-8.828-8.828s3.955-8.828,8.828-8.828h194.207
		c4.873,0,8.828,3.955,8.828,8.828S243.218,414.897,238.345,414.897z"/>
	<path style="fill:#BDC3C7;" d="M238.345,450.207H44.138c-4.873,0-8.828-3.955-8.828-8.828s3.955-8.828,8.828-8.828h194.207
		c4.873,0,8.828,3.955,8.828,8.828S243.218,450.207,238.345,450.207z"/>
	<path style="fill:#BDC3C7;" d="M238.345,485.517H44.138c-4.873,0-8.828-3.955-8.828-8.828c0-4.873,3.955-8.828,8.828-8.828h194.207
		c4.873,0,8.828,3.955,8.828,8.828C247.172,481.562,243.218,485.517,238.345,485.517z"/>
</g>
<rect x="282.483" y="300.138" style="fill:#24AE5F;" width="185.379" height="176.552"/>
<path style="fill:#FFFFFF;" d="M438.793,391l-35.31-35.31c-3.452-3.452-9.031-3.452-12.482,0l-24.655,24.655l-7-7
	c-3.452-3.452-9.031-3.452-12.482,0l-35.31,35.31c-3.452,3.452-3.452,9.031,0,12.482c1.721,1.721,3.981,2.586,6.241,2.586
	c2.26,0,4.52-0.865,6.241-2.586l29.069-29.069l29.069,29.069c1.721,1.721,3.981,2.586,6.241,2.586s4.52-0.865,6.241-2.586
	c3.452-3.452,3.452-9.031,0-12.482l-15.828-15.828l18.414-18.414l29.069,29.069c1.721,1.721,3.981,2.586,6.241,2.586
	s4.52-0.865,6.241-2.586C442.244,400.031,442.244,394.452,438.793,391z"/>
<rect x="44.138" y="141.241" style="fill:#489FDB;" width="423.724" height="123.586"/>
<g>
	<path style="fill:#FFFFFF;" d="M353.103,194.207H141.241c-4.873,0-8.828-3.955-8.828-8.828c0-4.873,3.955-8.828,8.828-8.828
		h211.862c4.873,0,8.828,3.955,8.828,8.828C361.931,190.252,357.976,194.207,353.103,194.207z"/>
	<path style="fill:#FFFFFF;" d="M397.241,229.517H114.759c-4.873,0-8.828-3.955-8.828-8.828c0-4.873,3.955-8.828,8.828-8.828
		h282.483c4.873,0,8.828,3.955,8.828,8.828C406.069,225.562,402.114,229.517,397.241,229.517z"/>
</g>
<g>
</g>
<g>
</g>
<g>
</g>
<g>
</g>
<g>
</g>
<g>
</g>
<g>
</g>
<g>
</g>
<g>
</g>
<g>
</g>
<g>
</g>
<g>
</g>
<g>
</g>
<g>
</g>
<g>
</g>
</svg>
