<?xml version="1.0"?>
<svg xmlns="http://www.w3.org/2000/svg" xmlns:xlink="http://www.w3.org/1999/xlink" xmlns:svgjs="http://svgjs.com/svgjs" version="1.1" width="512" height="512" x="0" y="0" viewBox="0 0 512 512" style="enable-background:new 0 0 512 512" xml:space="preserve" class=""><circle r="256" cx="256" cy="256" fill="#bccddb" shape="circle"/><g transform="matrix(0.7,0,0,0.7,76.80000000000001,76.80000000000001)">
<g xmlns="http://www.w3.org/2000/svg">
	<path style="" d="M88.276,114.759V17.655C88.304,7.916,96.192,0.029,105.931,0h238.345l114.759,114.759v228.105   L423.724,512H105.931c-9.739-0.029-17.627-7.916-17.655-17.655V114.759z" fill="#95a5a5" data-original="#95a5a5" class=""/>
	<path style="" d="M17.655,150.069h150.069c9.751,0,17.655,7.904,17.655,17.655v211.862   c0,9.751-7.904,17.655-17.655,17.655H17.655C7.904,397.241,0,389.337,0,379.586V167.724C0,157.973,7.904,150.069,17.655,150.069z" fill="#3d324c" data-original="#3d324c"/>
	<path style="" d="M344.276,0v97.103c0,9.751,7.905,17.655,17.655,17.655h97.103L344.276,0z" fill="#7f8c8d" data-original="#7f8c8d"/>
	<g>
		<path style="" d="M114.759,256h26.483c4.875,0,8.828,3.952,8.828,8.828v17.655c0,4.875-3.952,8.828-8.828,8.828    h-26.483c-4.875,0-8.828-3.952-8.828-8.828v-17.655C105.931,259.952,109.883,256,114.759,256z" fill="#cc66a1" data-original="#cc66a1"/>
		<path style="" d="M114.759,326.621h26.483c4.875,0,8.828,3.952,8.828,8.828v17.655c0,4.875-3.952,8.828-8.828,8.828    h-26.483c-4.875,0-8.828-3.952-8.828-8.828v-17.655C105.931,330.573,109.883,326.621,114.759,326.621z" fill="#cc66a1" data-original="#cc66a1"/>
		<path style="" d="M52.966,300.138c-4.875,0-8.828-3.952-8.828-8.828V256c0-4.875,3.952-8.828,8.828-8.828    s8.828,3.952,8.828,8.828v35.31C61.793,296.186,57.841,300.138,52.966,300.138z" fill="#cc66a1" data-original="#cc66a1"/>
		<path style="" d="M70.621,282.483H35.31c-4.875,0-8.828-3.952-8.828-8.828s3.952-8.828,8.828-8.828h35.31    c4.875,0,8.828,3.952,8.828,8.828S75.496,282.483,70.621,282.483z" fill="#cc66a1" data-original="#cc66a1"/>
		<path style="" d="M70.621,353.103H35.31c-4.875,0-8.828-3.952-8.828-8.828s3.952-8.828,8.828-8.828h35.31    c4.875,0,8.828,3.952,8.828,8.828S75.496,353.103,70.621,353.103z" fill="#cc66a1" data-original="#cc66a1"/>
	</g>
	<g>
		<path style="" d="M423.724,176.552H220.69c-4.875,0-8.828-3.952-8.828-8.828s3.952-8.828,8.828-8.828h203.034    c4.875,0,8.828,3.952,8.828,8.828S428.599,176.552,423.724,176.552z" fill="#ffffff" data-original="#ffffff"/>
		<path style="" d="M423.724,229.517H220.69c-4.875,0-8.828-3.952-8.828-8.828s3.952-8.828,8.828-8.828h203.034    c4.875,0,8.828,3.952,8.828,8.828S428.599,229.517,423.724,229.517z" fill="#ffffff" data-original="#ffffff"/>
		<path style="" d="M423.724,282.483H220.69c-4.875,0-8.828-3.952-8.828-8.828s3.952-8.828,8.828-8.828h203.034    c4.875,0,8.828,3.952,8.828,8.828S428.599,282.483,423.724,282.483z" fill="#ffffff" data-original="#ffffff"/>
		<path style="" d="M344.276,335.448H220.69c-4.875,0-8.828-3.952-8.828-8.828s3.952-8.828,8.828-8.828h123.586    c4.875,0,8.828,3.952,8.828,8.828S349.151,335.448,344.276,335.448z" fill="#ffffff" data-original="#ffffff"/>
	</g>
	<path style="" d="M44.138,185.379h97.103c4.875,0,8.828,3.952,8.828,8.828v17.655c0,4.875-3.952,8.828-8.828,8.828   H44.138c-4.875,0-8.828-3.952-8.828-8.828v-17.655C35.31,189.332,39.263,185.379,44.138,185.379z" fill="#65ddb9" data-original="#65ddb9"/>
	<circle style="" cx="423.724" cy="423.724" r="88.276" fill="#f0c419" data-original="#f0c419" class=""/>
	<g>
		<path style="" d="M419.22,474.043c-5.778-0.029-11.482-1.298-16.728-3.72c-8.02-3.544-14.604-9.7-18.677-17.466    c-4.045-7.588-4.409-16.607-0.987-24.496c2.023-4.435,7.259-6.39,11.694-4.366c4.435,2.023,6.39,7.259,4.366,11.694    c-1.155,3.016-0.904,6.391,0.685,9.203c4.811,8.456,14.499,12.877,24.039,10.97c3.248-0.45,6.04-2.53,7.401-5.513    c1.361-2.983,1.103-6.454-0.685-9.203c-2.282-4.173-5.886-7.469-10.246-9.371c-8.02-3.547-14.603-9.704-18.677-17.47    c-4.206-7.543-4.572-16.637-0.986-24.494c3.586-7.857,10.696-13.539,19.15-15.304c17.55-3.918,35.565,4.302,44.108,20.125    c4.046,7.588,4.409,16.607,0.987,24.496c-1.306,2.874-4.047,4.831-7.189,5.134c-3.142,0.303-6.207-1.095-8.037-3.667    s-2.149-5.925-0.834-8.795c1.155-3.016,0.904-6.391-0.685-9.203c-4.811-8.456-14.499-12.877-24.039-10.97    c-3.248,0.45-6.04,2.53-7.401,5.513c-1.361,2.983-1.103,6.455,0.685,9.203c2.282,4.173,5.886,7.469,10.246,9.371    c8.02,3.547,14.603,9.704,18.677,17.47c4.206,7.543,4.572,16.637,0.986,24.494s-10.696,13.539-19.15,15.304    C425.076,473.694,422.153,474.05,419.22,474.043z" fill="#b19046" data-original="#b19046" class=""/>
		<path style="" d="M401.754,480.763c-3.002-0.006-5.795-1.536-7.417-4.061c-1.622-2.526-1.851-5.702-0.609-8.434    l43.974-96.371c2.023-4.435,7.259-6.39,11.694-4.366c4.435,2.023,6.39,7.259,4.366,11.694l-43.974,96.371    C408.355,478.743,405.214,480.763,401.754,480.763z" fill="#b19046" data-original="#b19046" class=""/>
	</g>
</g>
<g xmlns="http://www.w3.org/2000/svg">
</g>
<g xmlns="http://www.w3.org/2000/svg">
</g>
<g xmlns="http://www.w3.org/2000/svg">
</g>
<g xmlns="http://www.w3.org/2000/svg">
</g>
<g xmlns="http://www.w3.org/2000/svg">
</g>
<g xmlns="http://www.w3.org/2000/svg">
</g>
<g xmlns="http://www.w3.org/2000/svg">
</g>
<g xmlns="http://www.w3.org/2000/svg">
</g>
<g xmlns="http://www.w3.org/2000/svg">
</g>
<g xmlns="http://www.w3.org/2000/svg">
</g>
<g xmlns="http://www.w3.org/2000/svg">
</g>
<g xmlns="http://www.w3.org/2000/svg">
</g>
<g xmlns="http://www.w3.org/2000/svg">
</g>
<g xmlns="http://www.w3.org/2000/svg">
</g>
<g xmlns="http://www.w3.org/2000/svg">
</g>
</g></svg>
