<svg id="icons" enable-background="new 0 0 64 64" height="512" viewBox="0 0 64 64" width="512" xmlns="http://www.w3.org/2000/svg"><path d="m15.861 12.583.701.7-4.24 4.24-.701-.7h-.01c-1.17-1.17-1.17-3.07.01-4.24 1.17-1.18 3.07-1.18 4.24 0z" fill="#ccd1d9"/><path d="m18.682 15.413 2.131 2.12-4.241 4.24h-.009l-2.112-2.12z" fill="#656d78"/><path d="m53.801 50.483c1.182 1.18 1.182 3.1 0 4.279-1.18 1.181-3.1 1.181-4.279 0l.02-.02-.67-.67 4.24-4.24.67.67z" fill="#ccd1d9"/><path d="m16.563 13.283 2.119 2.13-4.231 4.24h-.01l-2.119-2.12v-.01z" fill="#656d78"/><path d="m22.148 19.977h5.997v12.262h-5.997z" fill="#ccd1d9" transform="matrix(.707 -.707 .707 .707 -11.096 25.428)"/><g fill="#656d78"><path d="m53.111 49.833-4.24 4.24h-.01l-2.109-2.12 4.23-4.24z"/><path d="m18.253 17.715h2.998v5.996h-2.998z" transform="matrix(-.707 -.707 .707 -.707 19.066 49.326)"/><path d="m48.861 45.583 2.121 2.13-4.23 4.24h-.01l-2.121-2.12v-.01z"/></g><path d="m46.742 43.463-4.24 4.24-10.9-10.9 4.24-4.23z" fill="#ccd1d9"/><path d="m44.183 43.645h2.998v5.997h-2.998z" fill="#656d78" transform="matrix(-.707 -.707 .707 -.707 44.987 111.926)"/><path d="m57.832 12.003c1.559-1.56 1.559-4.1 0-5.66-1.561-1.56-4.1-1.56-5.66 0-1.561 1.561-1.561 4.101 0 5.66 1.56 1.56 4.099 1.56 5.66 0zm2.119-7.78c2.73 2.73 2.73 7.16 0 9.9-2.73 2.73-7.17 2.73-9.9 0-2.729-2.74-2.729-7.17 0-9.9 2.73-2.74 7.17-2.74 9.9 0z" fill="#e6e9ed"/><path d="m57.832 6.343c1.559 1.561 1.559 4.101 0 5.66-1.561 1.561-4.1 1.561-5.66 0-1.561-1.56-1.561-4.1 0-5.66 1.56-1.56 4.099-1.56 5.66 0z" fill="#ccd1d9"/><path d="m31.602 28.323 3.721-3.71c1.17-1.17 3.068-1.17 4.24 0 1.17 1.17 1.17 3.069 0 4.24l-3.721 3.72-4.24 4.229-23.051 23.052-1.43.02-2.82-2.83c-.389-.39-.389-1.02 0-1.41l.012-.02 23.049-23.05z" fill="#e6e9ed"/><path d="m11.613 17.82c-.256 0-.512-.098-.707-.293-1.56-1.561-1.559-4.1.002-5.658 1.51-1.512 4.146-1.512 5.656 0 .391.391.391 1.024 0 1.414-.391.391-1.023.391-1.414 0-.756-.756-2.072-.756-2.828 0-.781.78-.781 2.05-.002 2.83.391.391.391 1.024 0 1.414-.195.196-.451.293-.707.293z"/><path d="m51.656 56.643c-1.03 0-2.06-.392-2.845-1.176-.391-.39-.391-1.023 0-1.414s1.023-.391 1.414 0c.789.787 2.072.789 2.863-.002.382-.382.593-.89.593-1.431s-.211-1.049-.593-1.431c-.391-.39-.391-1.023 0-1.414s1.023-.391 1.414 0c.76.759 1.179 1.77 1.179 2.845s-.419 2.086-1.179 2.845c-.783.785-1.814 1.178-2.846 1.178z"/><path d="m53.778 51.5c-.256 0-.512-.098-.707-.293l-17.933-17.934c-.391-.391-.391-1.023 0-1.414s1.023-.391 1.414 0l17.934 17.934c.391.391.391 1.023 0 1.414-.196.195-.452.293-.708.293z"/><path d="m31.605 29.326c-.256 0-.512-.098-.707-.293l-15.749-15.748c-.391-.391-.391-1.023 0-1.414s1.023-.391 1.414 0l15.749 15.748c.391.391.391 1.023 0 1.414-.195.196-.451.293-.707.293z"/><path d="m49.537 55.742c-.256 0-.512-.098-.707-.293l-17.939-17.939c-.391-.391-.391-1.023 0-1.414s1.023-.391 1.414 0l17.939 17.939c.391.391.391 1.023 0 1.414-.195.196-.451.293-.707.293z"/><path d="m27.361 33.564c-.256 0-.512-.098-.707-.293l-15.746-15.746c-.391-.391-.391-1.023 0-1.414s1.023-.391 1.414 0l15.746 15.746c.391.391.391 1.023 0 1.414-.195.196-.451.293-.707.293z"/><path d="m11.615 13.576c-.256 0-.512-.098-.707-.293l-3.534-3.533c-.391-.391-.391-1.023 0-1.414s1.023-.391 1.414 0l3.534 3.533c.391.391.391 1.023 0 1.414-.195.196-.451.293-.707.293z"/><path d="m9.495 8.627c-.256 0-.512-.098-.707-.293-.391-.391-.391-1.024 0-1.414.378-.378.587-.88.587-1.413 0-.534-.209-1.036-.587-1.415-.78-.78-2.051-.778-2.829 0-.391.391-1.023.391-1.414 0s-.391-1.024 0-1.414c1.56-1.558 4.096-1.56 5.657 0 .756.757 1.173 1.762 1.173 2.829s-.417 2.072-1.173 2.827c-.195.195-.451.293-.707.293z"/><path d="m1.013 8.625c-.256 0-.512-.098-.707-.293-.391-.391-.391-1.023 0-1.414l4.239-4.24c.391-.391 1.023-.391 1.414 0s.391 1.023 0 1.414l-4.239 4.24c-.196.195-.451.293-.707.293z"/><path d="m8.081 10.043c-.256 0-.512-.098-.707-.292-.391-.391-.391-1.023-.001-1.415l1.414-1.416c.391-.391 1.024-.39 1.415-.001.391.391.391 1.023.001 1.415l-1.414 1.416c-.195.195-.452.293-.708.293z"/><path d="m57.333 59.295c-.256 0-.512-.098-.707-.293l-3.537-3.537c-.391-.391-.391-1.023 0-1.414s1.023-.391 1.414 0l3.537 3.537c.391.391.391 1.023 0 1.414-.195.195-.451.293-.707.293z"/><path d="m58.037 62.832c-.467 0-.885-.329-.979-.805l-.705-3.537c-.108-.541.243-1.068.785-1.176.541-.114 1.067.244 1.176.785l.705 3.537c.108.541-.243 1.068-.785 1.176-.066.014-.132.02-.197.02z"/><path d="m58.038 62.832c-.256 0-.512-.098-.707-.293-.391-.391-.391-1.023 0-1.414l4.949-4.951c.391-.391 1.023-.391 1.414 0s.391 1.023 0 1.414l-4.949 4.951c-.195.195-.451.293-.707.293z"/><path d="m12.322 18.525c-.256 0-.512-.098-.707-.293-.391-.391-.391-1.023 0-1.414l4.241-4.24c.391-.391 1.023-.391 1.414 0s.391 1.023 0 1.414l-4.241 4.24c-.195.196-.451.293-.707.293z"/><path d="m14.443 20.646c-.256 0-.512-.098-.707-.293-.391-.391-.391-1.023 0-1.414l4.241-4.24c.391-.391 1.023-.391 1.414 0s.391 1.023 0 1.414l-4.241 4.24c-.195.196-.451.293-.707.293z"/><path d="m16.564 22.77c-.256 0-.512-.098-.707-.293-.391-.391-.391-1.023 0-1.414l4.241-4.242c.391-.391 1.023-.391 1.414 0s.391 1.023 0 1.414l-4.241 4.242c-.195.195-.451.293-.707.293z"/><path d="m18.686 24.891c-.256 0-.512-.098-.707-.293-.391-.391-.391-1.023 0-1.414l4.242-4.242c.391-.391 1.023-.391 1.414 0s.391 1.023 0 1.414l-4.242 4.242c-.196.195-.452.293-.707.293z"/><path d="m42.5 48.705c-.256 0-.512-.098-.707-.293-.391-.391-.391-1.023 0-1.414l4.241-4.242c.391-.391 1.023-.391 1.414 0s.391 1.023 0 1.414l-4.241 4.242c-.195.195-.451.293-.707.293z"/><path d="m44.621 50.826c-.256 0-.512-.098-.707-.293-.391-.391-.391-1.023 0-1.414l4.241-4.24c.391-.391 1.023-.391 1.414 0s.391 1.023 0 1.414l-4.241 4.24c-.195.196-.451.293-.707.293z"/><path d="m46.743 52.947c-.256 0-.512-.098-.707-.293-.391-.391-.391-1.023 0-1.414l4.241-4.24c.391-.391 1.023-.391 1.414 0s.391 1.023 0 1.414l-4.241 4.24c-.195.196-.451.293-.707.293z"/><path d="m48.864 55.068c-.256 0-.512-.098-.707-.293-.391-.391-.391-1.023 0-1.414l4.241-4.24c.391-.391 1.023-.391 1.414 0s.391 1.023 0 1.414l-4.241 4.24c-.195.196-.451.293-.707.293z"/><path d="m39.56 29.852c-.256 0-.512-.098-.707-.293-.391-.391-.391-1.023 0-1.414.78-.78.78-2.05 0-2.83-.781-.779-2.049-.779-2.83 0-.391.391-1.023.391-1.414 0s-.391-1.023 0-1.414c1.561-1.561 4.098-1.561 5.658 0 1.561 1.56 1.561 4.099 0 5.658-.196.195-.452.293-.707.293z"/><path d="m8.554 60.855c-.256 0-.512-.098-.707-.293-.391-.391-.391-1.023 0-1.414l31.005-31.006c.391-.391 1.023-.391 1.414 0s.391 1.023 0 1.414l-31.005 31.007c-.196.195-.451.292-.707.292z"/><path d="m4.313 56.613c-.256 0-.512-.098-.707-.293-.391-.391-.391-1.023 0-1.414l31.004-31.004c.391-.391 1.023-.391 1.414 0s.391 1.023 0 1.414l-31.004 31.004c-.196.196-.452.293-.707.293z"/><path d="m54.999 17.168c-2.137 0-4.146-.832-5.656-2.344-3.119-3.117-3.119-8.192 0-11.313 1.511-1.512 3.52-2.344 5.656-2.344 2.138 0 4.146.832 5.657 2.344s2.343 3.521 2.343 5.657-.832 4.146-2.343 5.655c-1.51 1.513-3.519 2.345-5.657 2.345zm0-14c-1.603 0-3.108.624-4.242 1.758-2.339 2.34-2.339 6.146 0 8.484 1.134 1.134 2.64 1.758 4.242 1.758 1.604 0 3.109-.624 4.243-1.758 1.133-1.133 1.757-2.639 1.757-4.241s-.624-3.109-1.757-4.243c-1.134-1.134-2.639-1.758-4.243-1.758z"/><path d="m55 14.168c-1.337 0-2.593-.521-3.536-1.465-.944-.943-1.464-2.199-1.464-3.535s.52-2.592 1.464-3.535 2.2-1.463 3.536-1.463c1.335 0 2.591.52 3.535 1.463 1.949 1.949 1.949 5.121 0 7.07-.943.944-2.199 1.465-3.535 1.465zm0-7.998c-.803 0-1.556.312-2.122.877-.566.566-.878 1.319-.878 2.121s.312 1.555.878 2.121c1.132 1.132 3.11 1.134 4.243 0 1.17-1.17 1.17-3.072 0-4.242-.566-.566-1.319-.877-2.121-.877z"/><path d="m4.296 58.045c-.256 0-.512-.098-.707-.293-.78-.779-.78-2.049 0-2.828.391-.391 1.023-.391 1.414 0s.391 1.023 0 1.414l-.001.001c.391.391.391 1.023.001 1.414-.195.194-.451.292-.707.292z"/><path d="m7.831 61.165c-.512 0-1.024-.195-1.414-.585-.391-.391-.391-1.023 0-1.414s1.023-.391 1.414 0c.391-.391 1.023-.391 1.414 0s.391 1.023 0 1.414c-.39.39-.902.585-1.414.585z"/><path d="m7.124 60.873c-.256 0-.512-.098-.707-.293l-2.828-2.828c-.391-.391-.391-1.023 0-1.414s1.023-.391 1.414 0l2.828 2.828c.391.391.391 1.023 0 1.414-.195.195-.451.293-.707.293z"/><path d="m39.56 25.607c-.256 0-.512-.098-.707-.293-.391-.391-.391-1.023 0-1.414l10.49-10.49c.391-.391 1.023-.391 1.414 0s.391 1.023 0 1.414l-10.49 10.49c-.196.196-.452.293-.707.293z"/></svg>