<svg height="512" viewBox="0 0 512 512" width="512" xmlns="http://www.w3.org/2000/svg"><g id="Filled_outline" data-name="Filled outline"><rect fill="#fec9a3" height="88" rx="32" transform="matrix(-1 0 0 -1 256 184)" width="64" x="96" y="48"/><path d="m56 248h112v-56l16 56h40l-17.94-87.761a32 32 0 0 0 -31.045-24.239h-87.015a32 32 0 0 0 -32 32z" fill="#8fd0d9"/><path d="m168 168h-80v80h80v-32a33.941 33.941 0 0 0 0-48z" fill="#8fd0d9"/><circle cx="92" cy="60" fill="#78462f" r="20"/><path d="m96 104 24-24a75.779 75.779 0 0 0 33.889 8h6.111v-8a32 32 0 0 0 -32-32 32 32 0 0 0 -32 32z" fill="#92563a"/><path d="m104 136 32 48 24-48z" fill="#348fd9"/><path d="m264 192h-40l-24 56h40z" fill="#8fd0d9"/><path d="m296 160h-41.167a24 24 0 0 0 -21.466 13.267l-9.367 18.733h41.167a24 24 0 0 0 21.466-13.267z" fill="#fec9a3"/><path d="m24 248h352v208h-352z" fill="#348fd9"/><g fill="#459de6"><path d="m24 248h352v32h-352z"/><path d="m48 312h16v16h-16z"/><path d="m48 344h16v64h-16z"/></g><path d="m248 352h-32v-32h-32v32h-32v32h32v32h32v-32h32z" fill="#e0e0de"/><path d="m24 280h352v16h-352z" fill="#3086cd"/><rect fill="#fec9a3" height="88" rx="32" width="64" x="384" y="96"/><path d="m376 456h40a0 0 0 0 1 0 0v32a0 0 0 0 1 0 0h-40a16 16 0 0 1 -16-16 16 16 0 0 1 16-16z" fill="#34507b"/><path d="m416 456h40v32h-40z" fill="#2b4266"/><path d="m448 152h-32l-24-24h-8a16 16 0 0 1 -16-16 16 16 0 0 1 16-16h32a32 32 0 0 1 32 32z" fill="#92563a"/><path d="m376 312h80v144h-80z" fill="#92563a"/><path d="m408 331.637h16v124.363h-16z" fill="#78462f"/><path d="m376 312h80l32 .333v-96.333a32 32 0 0 0 -32-32h-80a32 32 0 0 0 -32 32v96z" fill="#ffb531"/><path d="m368 216h16v96h-16z" fill="#faa50f"/><path d="m448 216h16v96h-16z" fill="#faa50f"/><path d="m344 312h32v32h-32z" fill="#fec9a3"/><path d="m456 312h32v32h-32z" fill="#fec9a3"/><path d="m312 128h-64a16 16 0 0 1 -16-16v-16l-24-16 24-16v-24a16 16 0 0 1 16-16h64a16 16 0 0 1 16 16v72a16 16 0 0 1 -16 16z" fill="#8fd0d9"/><path d="m272 80h16v24h-16z" fill="#b7e7eb"/><path d="m272 48h16v16h-16z" fill="#b7e7eb"/><path d="m176 248h-16v-32a8 8 0 0 1 2.343-5.657 25.941 25.941 0 0 0 0-36.686l11.314-11.314a42 42 0 0 1 2.343 56.771z" fill="#76bbc4"/><path d="m80 168h16v80h-16z" fill="#76bbc4"/><path d="m32 288h288v-16h-288v-16h288v-16h-67.867l17.267-40.283a31.794 31.794 0 0 0 24.392-17.406l9.366-18.734a8 8 0 0 0 -7.158-11.577h-41.167a31.825 31.825 0 0 0 -28.622 17.689l-7.136 14.272-5.175-25.323c-.023-.113-.048-.225-.076-.336a39.934 39.934 0 0 0 -38.8-30.3h-15.046a39.788 39.788 0 0 0 8.022-24.002v-24a39.986 39.986 0 0 0 -54.106-37.424 27.991 27.991 0 1 0 -25.894 45.134v16.29a39.788 39.788 0 0 0 8.022 24h-8.022a39.979 39.979 0 0 0 -38.738 30.006l15.494 3.988a23.983 23.983 0 0 1 23.244-17.994h11.719l29.625 44.438a8 8 0 0 0 6.656 3.562c.165 0 .332 0 .5-.016a8 8 0 0 0 6.658-4.406l21.786-43.578h10.076a23.956 23.956 0 0 1 23.239 18.023l9.652 47.208-13.186 30.769h-4.69l-8.415-29.466a42.011 42.011 0 0 0 -7.963-48.191l-11.314 11.314a25.941 25.941 0 0 1 0 36.686 8 8 0 0 0 -2.343 5.657v24h-64v-72h-16v72h-16v-64h-16v64h-24a8 8 0 0 0 -8 8v208a8 8 0 0 0 8 8h320v-16h-312zm72.208-180.894 17.525-17.526a84.307 84.307 0 0 0 30.267 6.373v8.047a24 24 0 0 1 -47.792 3.106zm47.792-27.134a68.173 68.173 0 0 1 -28.422-7.127 8 8 0 0 0 -9.234 1.5l-10.344 10.341v-4.686a24 24 0 0 1 48-.028zm-72-19.972a11.993 11.993 0 0 1 20.217-8.736 39.975 39.975 0 0 0 -11.317 20.315 12.009 12.009 0 0 1 -8.9-11.579zm55.01 108.092-16.062-24.092h28.108zm105.511 8.753a15.914 15.914 0 0 1 14.312-8.845h28.223l-3.577 7.155a15.914 15.914 0 0 1 -14.312 8.845h-28.223zm-11.246 23.155h22.593l-17.143 40h-22.593z"/><path d="m48 312h16v16h-16z"/><path d="m48 344h16v64h-16z"/><path d="m184 424h32a8 8 0 0 0 8-8v-24h24a8 8 0 0 0 8-8v-32a8 8 0 0 0 -8-8h-24v-24a8 8 0 0 0 -8-8h-32a8 8 0 0 0 -8 8v24h-24a8 8 0 0 0 -8 8v32a8 8 0 0 0 8 8h24v24a8 8 0 0 0 8 8zm-24-48v-16h24a8 8 0 0 0 8-8v-24h16v24a8 8 0 0 0 8 8h24v16h-24a8 8 0 0 0 -8 8v24h-16v-24a8 8 0 0 0 -8-8z"/><path d="m456 176h-8.022a39.788 39.788 0 0 0 8.022-24v-24a40.045 40.045 0 0 0 -40-40h-32a24 24 0 0 0 -8 46.624v17.376a39.788 39.788 0 0 0 8.022 24h-8.022a40.045 40.045 0 0 0 -40 40v128a8 8 0 0 0 8 8h24v97.376a24 24 0 0 0 8 46.624h80a8 8 0 0 0 8-8v-72h-16v32h-24v-112h-16v112h-24v-128h64v80h16v-48h24a8 8 0 0 0 8-8v-128a40.045 40.045 0 0 0 -40-40zm-72-72h32a24.028 24.028 0 0 1 24 24v16h-20.687l-21.656-21.657a8 8 0 0 0 -5.657-2.343h-8a8 8 0 0 1 0-16zm8 48v-12.687l18.343 18.344a8 8 0 0 0 5.657 2.343h22.624a24 24 0 0 1 -46.624-8zm56 328h-24v-16h24zm-40 0h-32a8 8 0 0 1 0-16h32zm-40-144h-16v-16h16zm16-32v-88h-16v88h-16v-88a24.028 24.028 0 0 1 24-24h80a24.028 24.028 0 0 1 24 24v88h-16v-88h-16v88zm80 32v-15.916l16 .166v15.75z"/><path d="m203.562 86.656 20.438 13.625v11.719a24.028 24.028 0 0 0 24 24h64a24.028 24.028 0 0 0 24-24v-72a24.028 24.028 0 0 0 -24-24h-64a24.028 24.028 0 0 0 -24 24v19.719l-20.438 13.625a8 8 0 0 0 0 13.312zm32.876-16a8 8 0 0 0 3.562-6.656v-24a8.009 8.009 0 0 1 8-8h64a8.009 8.009 0 0 1 8 8v72a8.009 8.009 0 0 1 -8 8h-64a8.009 8.009 0 0 1 -8-8v-16a8 8 0 0 0 -3.562-6.656l-14.016-9.344z"/><path d="m272 80h16v24h-16z"/><path d="m272 48h16v16h-16z"/></g></svg>