<svg height="512pt" viewBox="-83 0 512 512" width="512pt" xmlns="http://www.w3.org/2000/svg"><path d="m172.984375 224.257812c-13.808594 0-25.941406-3.789062-35.863281-10.128906v35.007813c18.394531 22.699219 53.023437 22.699219 71.414062 0v-35.953125c-10.113281 6.976562-22.363281 11.074218-35.550781 11.074218zm0 0" fill="#f0a479"/><path d="m167.125 224.015625c-11.394531-.914063-21.507812-4.460937-30-9.886719v35.007813c7.871094 9.71875 18.722656 15.261719 30 16.660156zm0 0" fill="#e5966e"/><path d="m302.996094 282.71875-70.210938-27.191406c-2.558594 8.050781-7.640625 15.1875-14.746094 20.101562-27.0625 18.710938-63.355468 18.710938-90.417968 0-7.105469-4.914062-12.183594-12.042968-14.742188-20.09375l-70.117187 27.183594s-34.9375 14.363281-34.9375 54.191406v85.859375h46.582031c6.429688 0 11.640625 5.214844 11.640625 11.644531v70.382813h213.664063v-70.382813c0-6.429687 5.210937-11.644531 11.640624-11.644531h46.578126c0-32.484375 0-66.839843 0-85.859375.003906-39.828125-34.933594-54.191406-34.933594-54.191406zm0 0" fill="#00c3ff"/><path d="m61.074219 275.542969-18.1875 7.050781s-34.9375 14.363281-34.9375 54.191406v85.859375h30c0-32.484375 0-81.128906 0-100.148437.003906-24.28125 12.984375-39.085938 23.125-46.953125zm0 0" fill="#00aaf0"/><path d="m208.535156 246.136719c-18.390625 22.703125-53.019531 22.703125-71.410156 0l-24.773438 9.605469c2.34375 8.78125 7.640626 16.609374 15.269532 21.886718 27.0625 18.710938 63.355468 18.710938 90.417968 0 7.632813-5.277344 12.929688-13.113281 15.273438-21.894531zm0 0" fill="#00aaf0"/><path d="m247.207031 344.125c-10.941406.011719-15.414062 8.828125-15.746093 9.214844-1.269532 1.449218-2.953126 1.746094-4.660157-.035156-5.875-10.339844-20.011719-12.308594-28.464843-3.839844-3.414063 3.414062-5.289063 7.949218-5.285157 12.765625.023438 20.195312 17.828125 36.136719 35.320313 44.394531.265625.121094.546875.183594.828125.183594s.566406-.0625.828125-.1875c2.78125-1.320313 10.035156-5.046875 17.289062-11.144532 11.917969-10.015624 17.957032-21.226562 17.945313-33.320312-.011719-9.941406-8.109375-18.03125-18.054688-18.03125zm0 0" fill="#d665d3"/><path d="m223.054688 362.230469c-.003907-3.628907 1.0625-7.097657 3.046874-10.046875-6.230468-9.347656-19.628906-10.867188-27.765624-2.71875-3.410157 3.417968-5.289063 7.949218-5.28125 12.765625.019531 20.195312 17.824218 36.136719 35.320312 44.394531.261719.125.542969.1875.824219.1875.285156 0 .566406-.0625.832031-.1875 2.367188-1.125 7.980469-4.003906 14.074219-8.59375-11.746094-8.859375-21.035157-21.21875-21.050781-35.800781zm0 0" fill="#c64ac6"/><path d="m68.046875 504.796875v-72.382813c0-6.429687-5.210937-11.644531-11.640625-11.644531h-48.582031v72.386719c0 6.429688 5.210937 11.640625 11.640625 11.640625h49.820312c-.410156 0-.828125 0-1.238281 0zm0 0" fill="#f0a479"/><path d="m37.910156 493.15625c0-12.300781 0-49.34375 0-72.386719h-30.085937v72.386719c0 6.429688 5.210937 11.640625 11.640625 11.640625h30.085937c-6.429687 0-11.640625-5.210937-11.640625-11.640625zm0 0" fill="#e5966e"/><path d="m337.933594 419.53125v1.238281h-48.582032c-6.429687 0-11.640624 5.214844-11.640624 11.644531v72.382813c-.40625 0-.828126 0-1.238282 0h49.816406c6.429688 0 11.644532-5.210937 11.644532-11.640625 0-12.519531 0-50.617188 0-73.625zm0 0" fill="#f0a479"/><path d="m320.082031 420.769531h-30.730469c-6.425781 0-11.640624 5.214844-11.640624 11.644531v72.382813h30.730468v-72.382813c0-6.429687 5.210938-11.644531 11.640625-11.644531zm0 0" fill="#e5966e"/><path d="m110.167969 120.492188v-4.058594c0-3.386719 2.890625-6.0625 6.238281-5.808594 33.039062 2.375 64.664062-6.125 90.085938-22.730469 2.371093-1.550781 5.515624-1.164062 7.445312.90625 21.734375 23.363281 19.601562 20.457031 19.601562 23.507813v4.789062.164063 3.152343c8.355469-.539062 18.25 7.507813 23.761719 12.617188v-39.78125c0-47.195312-38.253906-85.453125-85.449219-85.453125-47.195312 0-85.453124 38.257813-85.453124 85.453125v35.464844c5.8125-5.300782 16.054687-8.476563 23.769531-8.222656zm0 0" fill="#707487"/><path d="m116.402344 93.25c0-42.074219 30.414062-77.019531 70.449218-84.113281-4.871093-.863281-9.878906-1.339844-15-1.339844-47.195312 0-85.453124 38.257813-85.453124 85.453125v35.464844c5.8125-5.300782 16.058593-8.476563 23.769531-8.222656v-4.0625c0-3.382813 2.886719-6.054688 6.234375-5.804688zm0 0" fill="#52586d"/><path d="m234.539062 120.457031v47.066407c0 .597656-.027343 1.183593-.042968 1.773437 15.597656 1.039063 29.542968-10.453125 29.542968-24.417969 0-13.988281-13.949218-25.425781-29.5-24.421875zm0 0" fill="#f0a479"/><path d="m254.542969 126.589844c-5.371094-4.199219-12.5-6.617188-20.003907-6.132813v47.066407c0 .597656-.027343 1.183593-.042968 1.773437 7.527344.5 14.667968-1.921875 20.046875-6.132813zm0 0" fill="#e5966e"/><path d="m109.167969 164.480469v-46.988281c-13.878907-.457032-29.503907 10.1875-29.503907 24.34375 0 13.949218 13.925782 25.457031 29.546876 24.417968-.015626-.589844-.042969-1.179687-.042969-1.773437zm0 0" fill="#f0a479"/><path d="m109.167969 160.125c-5.765625-4.511719-9.5-11.070312-9.5-18.289062 0-7.058594 3.882812-13.242188 9.5-17.613282v-6.730468c-13.878907-.457032-29.503907 10.1875-29.503907 24.34375 0 13.949218 13.925782 25.457031 29.546876 24.417968-.019532-.589844-.042969-1.179687-.042969-1.773437zm0 0" fill="#e5966e"/><path d="m213.9375 83.800781c-1.929688-2.070312-5.070312-2.457031-7.445312-.90625-25.421876 16.605469-59.046876 27.105469-92.082032 24.730469-3.351562-.253906-6.242187 2.421875-6.242187 5.804688v51.050781c0 32.808593 25.707031 62.777343 64.59375 62.777343 34.617187 0 62.777343-28.160156 62.777343-62.777343v-55.171875c0-3.046875.132813-2.144532-21.601562-25.507813zm0 0" fill="#f7b594"/><path d="m138.167969 164.480469v-57.28125c-7.875.816406-15.832031.996093-23.761719.429687-3.347656-.253906-6.238281 2.417969-6.238281 5.804688v51.046875c0 32.8125 25.707031 62.777343 64.59375 62.777343 4.988281 0 9.835937-.601562 14.488281-1.707031-30.054688-6.757812-49.082031-32.851562-49.082031-61.070312zm0 0" fill="#f0a479"/><path d="m224.847656 413.109375c2.554688 1.207031 5.527344 1.199219 8.074219-.007813 20.164063-9.570312 39.539063-27.785156 39.515625-51.25-.027344-22.734374-27.878906-34.039062-43.601562-18.027343-16.035157-16.078125-43.628907-4.535157-43.609376 18.117187.027344 23.953125 20.484376 42.136719 39.621094 51.167969zm-4.890625-56.394531c1.386719 2.445312 5 5.140625 9.148438 5.023437 3.550781-.085937 6.792969-2.140625 8.574219-5.003906 6.199218-9.96875 19.746093-4.992187 19.757812 5.132813.015625 16.164062-14.546875 29.085937-28.582031 36.492187-14.25-7.34375-28.609375-20.386719-28.625-36.433594-.007813-10.722656 14.359375-14.65625 19.726562-5.210937zm0 0"/><path d="m182.554688 504.5c0 4.140625 3.355468 7.5 7.5 7.5h135.910156c10.554687 0 19.144531-8.585938 19.144531-19.140625 0-11.214844 0-102.8125 0-114.03125 0-4.140625-3.359375-7.5-7.5-7.5-4.144531 0-7.503906 3.359375-7.503906 7.5v36.144531h-39.078125c-10.554688 0-19.140625 8.585938-19.140625 19.144532v62.882812h-81.832031c-4.140626 0-7.5 3.355469-7.5 7.5zm104.332031-70.382812c0-2.285157 1.859375-4.144532 4.140625-4.144532h39.082031v62.882813c0 2.285156-1.859375 4.144531-4.144531 4.144531h-39.078125zm0 0"/><path d="m345.109375 336.613281c0-44.34375-37.972656-60.464843-39.585937-61.128906-.046876-.019531-.097657-.039063-.144532-.058594l-89.667968-34.726562v-21.027344c14.308593-11.128906 24.207031-27.648437 26.628906-46.488281 16.484375-2.230469 30.09375-15.445313 30.09375-31.644532 0-7.234374-2.722656-14.171874-7.734375-19.84375v-28.742187c0-51.253906-41.695313-92.953125-92.949219-92.953125s-92.953125 41.699219-92.953125 92.953125v29.390625c-5 5.5625-7.734375 12.292969-7.734375 19.195312 0 16.140626 13.539062 29.402344 30.089844 31.644532 2.480468 19.519531 12.894531 36.519531 28.148437 47.597656v19.921875c-.089843.035156-89.625 34.742187-89.714843 34.78125-1.617188.664063-39.585938 16.78125-39.585938 61.128906v156.246094c0 10.554687 8.589844 19.140625 19.144531 19.140625h135.910157c4.140624 0 7.5-3.359375 7.5-7.5 0-4.144531-3.359376-7.5-7.5-7.5h-81.828126v-62.882812c0-10.558594-8.589843-19.144532-19.144531-19.144532h-39.082031v-78.359375c0-33.773437 28.496094-46.488281 30.242188-47.234375l62.382812-24.1875c10.476562 22.378906 40.34375 33.65625 64.878906 33.65625 24.503906 0 54.402344-11.257812 64.882813-33.664062l62.476562 24.195312c1.351563.582032 30.242188 13.464844 30.242188 47.234375v7.214844c0 4.140625 3.359375 7.5 7.5 7.5 4.144531 0 7.5-3.359375 7.5-7.5v-7.214844zm-330.109375 93.359375h39.082031c2.28125 0 4.140625 1.859375 4.140625 4.144532v62.882812h-39.082031c-2.28125 0-4.140625-1.859375-4.140625-4.140625zm242.4375-288.433594c0 7.808594-6.765625 14.269532-14.5 16.273438v-32.523438c8.195312 2.148438 14.5 8.753907 14.5 16.25zm-156.875 16.277344c-7.746094-2.007812-14.5-8.480468-14.5-16.277344 0-7.476562 7.210938-13.519531 14.5-15.796874zm.320312-47.574218c-2.398437.425781-4.777343 1.085937-7.085937 1.964843v-19.253906c0-42.984375 34.96875-77.953125 77.949219-77.953125 42.984375 0 77.953125 34.96875 77.953125 77.953125v18.710937c-2.285157-.804687-4.714844-1.375-6.761719-1.6875 0-1.730468.03125-3.089843-.308594-4.4375-.980468-3.882812-5-7.484374-22.617187-26.40625-5.53125-5.945312-12.515625-6.222656-17.726563-2.816406-26.128906 17.070313-57.996094 25.648438-87.414062 23.535156-6.628906-.503906-12.554688 3.988282-13.988282 10.390626zm14.679688 53.941406c0-5.816406 0-44.308594 0-49.253906 31.855469 1.859374 65.816406-7.402344 93.738281-25.285157 10.785157 11.582031 16.742188 17.777344 18.636719 20.101563v54.4375c0 30.773437-25.101562 55.238281-55.203125 55.273437-.027344 0-.050781.003907-.074219.003907-.019531 0-.039062-.003907-.058594-.003907-34.132812-.023437-57.039062-26.515625-57.039062-55.273437zm85.148438 64.429687v14.425781c-7.394532 7.996094-17.65625 12.328126-28.207032 12.328126-10.605468 0-20.808594-4.332032-28.203125-12.328126v-13.953124c9.121094 3.667968 18.964844 5.375 28.359375 5.375 9.78125 0 19.445313-2.082032 28.050782-5.847657zm-69.148438 42.550781c-4.1875-2.898437-7.578125-6.832031-9.902344-11.410156l13.03125-5.054687c9.699219 9.722656 23.175782 15.667969 37.8125 15.667969 14.234375 0 27.832032-5.664063 37.816406-15.667969l13.035157 5.046875c-10.714844 21.121094-56.585938 35.761718-91.792969 11.417968zm0 0"/></svg>