<svg id="Layer_1" enable-background="new 0 0 512 512" height="512" viewBox="0 0 512 512" width="512" xmlns="http://www.w3.org/2000/svg"><g><g fill="#8298a1"><path d="m484.878 98.332c-12.374-8.982-24.573-15.098-25.086-15.354-3.703-1.846-8.207-.342-10.056 3.363-1.85 3.705-.345 8.208 3.359 10.059 18.23 9.108 43.904 27.258 43.904 39.091 0 2.488-2.401 7.489-9.138 14.063-6.269 6.115-9.863 14.668-9.863 23.466v80.465c0 4.142 3.358 7.5 7.5 7.5s7.5-3.358 7.5-7.5v-80.465c0-4.78 1.946-9.42 5.338-12.73 9.066-8.845 13.664-17.189 13.664-24.799 0-11.594-9.125-24.096-27.122-37.159z"/><path d="m404.416 122.265c-4.142 0-7.5 3.358-7.5 7.5v123.721c0 4.142 3.358 7.5 7.5 7.5s7.5-3.358 7.5-7.5v-123.721c0-4.142-3.358-7.5-7.5-7.5z"/><path d="m194.943 119.356c-.001 0-.003 0-.005 0-4.14 0-7.497 3.354-7.5 7.495l-.061 89.829c-.003 4.142 3.353 7.502 7.495 7.505h.005c4.14 0 7.497-3.354 7.5-7.495l.061-89.829c.003-4.142-3.353-7.502-7.495-7.505z"/><path d="m67.229 196.331h-59.729c-4.142 0-7.5 3.358-7.5 7.5s3.358 7.5 7.5 7.5h59.729c4.142 0 7.5-3.358 7.5-7.5s-3.358-7.5-7.5-7.5z"/></g><g><g><g><path d="m469.123 504.472v-92.008l10-50.988-10-55.06v-50.602l8.482-12.998c3.79-5.808 12.299-5.808 16.089 0l8.482 12.998v50.602l-10 55.06 10 50.988v92.008z" fill="#abc9d4"/><path d="m502.176 255.813-8.482-12.998c-3.79-5.808-12.299-5.808-16.089 0l-.219.335 8.263 12.663v50.602l-8.263 45.498 1.737 9.563-1.737 8.855 8.263 42.133v92.008h16.526v-92.008l-10-50.988 10-55.061v-50.602z" fill="#9bbac4"/><path d="m469.123 306.414h33.053v106.049h-33.053z" fill="#f2f7f7"/><path d="m485.65 306.414h16.526v106.049h-16.526z" fill="#e6f0f0"/></g><g><path d="m388.041 504.472v-92.008l10-53.024-10-53.024v-50.602l9.212-14.116c3.446-5.281 11.183-5.281 14.629 0l9.212 14.116v50.602l-10 53.024 10 53.024v92.008z" fill="#abc9d4"/><path d="m388.041 504.472v-92.008l10-53.024-10-53.024v-50.602l9.212-14.116c3.446-5.281 11.183-5.281 14.629 0l9.212 14.116v50.602l-10 53.024 10 53.024v92.008z" fill="#abc9d4"/><path d="m421.093 255.813-9.212-14.116c-3.446-5.281-11.183-5.281-14.629 0l-.948 1.453 8.263 12.663v50.602l-8.263 43.815 1.737 9.209-1.737 9.209 8.263 43.815v92.008h16.526v-92.008l-10-53.025 10-53.024z" fill="#9bbac4"/><path d="m388.041 306.414h33.053v106.049h-33.053z" fill="#f2f7f7"/><path d="m388.041 306.414h33.053v106.049h-33.053z" fill="#f2f7f7"/><path d="m404.567 306.414h16.526v106.049h-16.526z" fill="#e6f0f0"/><ellipse cx="385.974" cy="77.861" fill="#f2f7f7" rx="36.455" ry="74.386" transform="matrix(.928 -.372 .372 .928 -1.297 148.99)"/><path d="m419.81 64.293c-15.271-38.139-42.8-62.981-61.487-55.487-4.1 1.644-7.432 4.709-9.977 8.893 11.837 9.91 23.372 26.384 31.464 46.594 11.921 29.771 12.848 58.843 3.792 73.731 10.5 8.791 21.238 12.416 30.023 8.893 18.687-7.493 21.456-44.486 6.185-82.624z" fill="#e6f0f0"/><g><path d="m404.576 127.903c-.282 0-.566-.016-.852-.048-4.116-.466-7.075-4.18-6.61-8.295 2.597-22.954-5.374-37.93-5.454-38.079-1.971-3.625-.655-8.18 2.959-10.17 3.614-1.993 8.147-.708 10.158 2.895.427.764 10.41 19.036 7.242 47.04-.433 3.829-3.678 6.657-7.443 6.657z" fill="#cfe3e3"/></g></g><g><path d="m320.689 254.129-91.113-197.299 51.691 197.408-8.234 250.234" fill="#8298a1"/><path d="m324.35 504.472 9.489-92.009-4.531-53.024 15.468-53.025 5.393-52.285-80.038-197.299 41.63 197.356-8.08 52.228 2.106 51.025-18.512 55.024-14.242 92.065z" fill="#abc9d4"/><path d="m350.169 254.129-80.038-197.299.805 3.818 59.233 193.481-5.393 52.285-15.468 53.025 4.531 53.024-9.489 92.009h20l9.489-92.009-4.531-53.024 15.468-53.025z" fill="#9bbac4"/><path d="m303.681 306.414h41.095l-10.937 106.049h-46.564z" fill="#f2f7f7"/><path d="m324.609 306.414-10.937 106.049h20.167l10.937-106.049z" fill="#e6f0f0"/></g><g><path d="m214.755 212.205-13.252-15.52h-6.626-6.626l-13.253 15.52v40.18l19.879 11.087 19.878-11.087z" fill="#f2f7f7"/><path d="m201.503 196.685h-6.626-6.626l-3.313 3.88 9.939 11.64v40.18l-9.939 5.543 9.939 5.544 19.878-11.087v-40.18z" fill="#e6f0f0"/><path d="m161.54 399.765h66.806v59.412h-66.806z" fill="#abc9d4"/><path d="m194.943 399.765h33.403v59.412h-33.403z" fill="#9bbac4"/><path d="m228.346 314.95-32.312 13.522-34.494-13.522 8.35-62.565h50.105z" fill="#abc9d4"/><path d="m219.995 252.385h-25.333l.281 62.565-13.787 7.69 14.878 5.832 32.312-13.522z" fill="#9bbac4"/><path d="m231.326 407.607h-72.766c-3.296 0-5.967-2.672-5.967-5.967v-80.33c0-3.296 2.672-5.967 5.967-5.967h72.766c3.296 0 5.967 2.672 5.967 5.967v80.329c0 3.296-2.672 5.968-5.967 5.968z" fill="#f2f7f7"/><path d="m231.326 315.343h-36.383l-.066 92.263h36.449c3.296 0 5.967-2.671 5.967-5.967v-80.329c0-3.295-2.672-5.967-5.967-5.967z" fill="#e6f0f0"/><path d="m152.592 504.472v-46.086c0-3.297 2.671-5.969 5.965-5.969h72.771c3.294 0 5.965 2.673 5.965 5.969v46.086z" fill="#f2f7f7"/><path d="m231.328 452.417h-36.385v52.055h42.35v-46.085c0-3.298-2.671-5.97-5.965-5.97z" fill="#e6f0f0"/></g></g><g><path d="m61.063 504.472c0-57.43 0-217.5 0-217.5h48.611v217.5z" fill="#abc9d4"/><path d="m85.369 286.972v217.5h24.305c0-57.43 0-217.5 0-217.5z" fill="#9bbac4"/><path d="m61.063 218.94h48.611v70.893h-48.611z" fill="#f2f7f7"/><path d="m85.369 218.94h24.305v70.893h-24.305z" fill="#e6f0f0"/><g><path d="m118.972 237.128c0 5.163-5.001 8.846-9.927 7.311l-34.523-10.759c-14.605-4.955-27.294-12.486-27.294-29.85 0-14.318 12.22-24.778 27.294-24.778h36.798c4.226 0 7.652 3.428 7.652 7.658z" fill="#abc9d4"/></g></g></g></g></svg>