<svg id="Flat" height="512" viewBox="0 0 512 512" width="512" xmlns="http://www.w3.org/2000/svg"><path d="m40 248h432a16 16 0 0 1 16 16v128a0 0 0 0 1 0 0h-464a0 0 0 0 1 0 0v-128a16 16 0 0 1 16-16z" fill="#fc9495"/><g fill="#e8edf1"><path d="m184 176c0 32-16 48-16 104s-16 64-24 64-16-8-16-48c0 0 0-16-16-16s-16 16-16 16c0 40-8 48-16 48s-24-8-24-64-16-72-16-104 32-56 40-56 32 16 32 16 24-16 32-16 40 24 40 56z"/><path d="m328 176c0 32-16 48-16 104s-16 64-24 64-16-8-16-48c0 0 0-16-16-16s-16 16-16 16c0 40-8 48-16 48s-24-8-24-64-16-72-16-104 32-56 40-56 32 16 32 16 24-16 32-16 40 24 40 56z"/><path d="m472 176c0 32-16 48-16 104s-16 64-24 64-16-8-16-48c0 0 0-16-16-16s-16 16-16 16c0 40-8 48-16 48s-24-8-24-64-16-72-16-104 32-56 40-56 32 16 32 16 24-16 32-16 40 24 40 56z"/></g><path d="m488 200h-472a8 8 0 0 1 0-16h472a8 8 0 0 1 0 16z" fill="#cfd1d3"/><path d="m88 168h48v48h-48z" fill="#a4d4f4"/><path d="m232 168h48v48h-48z" fill="#a4d4f4"/><path d="m376 168h48v48h-48z" fill="#a4d4f4"/></svg>