<?xml version="1.0"?>
<svg xmlns="http://www.w3.org/2000/svg" xmlns:xlink="http://www.w3.org/1999/xlink" xmlns:svgjs="http://svgjs.com/svgjs" version="1.1" width="512" height="512" x="0" y="0" viewBox="0 0 512 512" style="enable-background:new 0 0 512 512" xml:space="preserve" class=""><g><g xmlns="http://www.w3.org/2000/svg"><circle cx="256" cy="256" fill="#fed402" r="256" data-original="#fed402" style="" class=""/><g><g><g><path d="m300.247 88.071h-117.844c-15.24 0-27.595 12.355-27.595 27.595 0 11.575 7.13 21.478 17.234 25.576v139.04h138.565v-139.04c10.104-4.098 17.234-14.001 17.234-25.576.001-15.24-12.354-27.595-27.594-27.595z" fill="#f6a96c" data-original="#f6a96c" style="" class=""/><path d="m175.809 115.666c0-15.24 12.355-27.595 27.595-27.595h-21c-15.24 0-27.595 12.355-27.595 27.595 0 11.575 7.13 21.478 17.234 25.576v139.04h21v-139.04c-10.105-4.098-17.234-14.002-17.234-25.576z" fill="#e6975a" data-original="#e6975a" style="" class=""/><path d="m300.247 88.071h-117.844c-15.24 0-27.595 12.355-27.595 27.595 0 3.528.669 6.898 1.876 10 4.006-10.295 14.007-17.595 25.718-17.595h117.844c11.712 0 21.712 7.3 25.718 17.595 1.207-3.102 1.876-6.472 1.876-10 .002-15.24-12.353-27.595-27.593-27.595z" fill="#d27350" data-original="#d27350" style="" class=""/><path d="m154.912 117.992c.049.59.117 1.175.203 1.754.025.164.054.327.082.49.078.467.168.93.269 1.389.042.19.082.38.128.569.115.475.247.943.386 1.407.069.231.14.461.216.689.152.463.315.922.491 1.374 3.337-8.574 10.839-15.053 20.017-16.985 3.094-11.857 13.874-20.608 26.7-20.608h-21c-15.24 0-27.595 12.355-27.595 27.595 0 .642.03 1.277.073 1.908.009.139.018.279.03.418z" fill="#ba6343" data-original="#ba6343" style="" class=""/></g><g fill="#e6975a"><circle cx="218.374" cy="131.254" r="5.588" fill="#e6975a" data-original="#e6975a" style="" class=""/><circle cx="262.742" cy="203.683" r="8.088" fill="#e6975a" data-original="#e6975a" style="" class=""/><circle cx="209.112" cy="189.886" r="5.709" fill="#e6975a" data-original="#e6975a" style="" class=""/><circle cx="264.347" cy="146.535" r="9.693" fill="#e6975a" data-original="#e6975a" style="" class=""/><circle cx="292.24" cy="234.132" r="3.33" fill="#e6975a" data-original="#e6975a" style="" class=""/><circle cx="225.969" cy="235.289" r="11.147" fill="#e6975a" data-original="#e6975a" style="" class=""/><circle cx="292.24" cy="170.379" r="3.33" fill="#e6975a" data-original="#e6975a" style="" class=""/></g></g><path d="m429.188 294.144h-39.318v-20.248h19.07c11.183 0 20.248 9.065 20.248 20.248z" fill="#0091c8" data-original="#0091c8" style="" class=""/><g><path d="m399.454 371.574h-321.796v-155.841c0-21.823 17.691-39.514 39.514-39.514h242.768c21.823 0 39.514 17.691 39.514 39.514z" fill="#afe6ff" data-original="#afe6ff" style="" class=""/><path d="m159.172 176.218h-42c-21.823 0-39.514 17.691-39.514 39.514v155.842h42v-155.842c0-21.823 17.691-39.514 39.514-39.514z" fill="#73c8f0" data-original="#73c8f0" style="" class=""/></g><path d="m422.436 396.949h-367.76c0-14.014 11.36-25.374 25.374-25.374h317.011c14.014-.001 25.375 11.36 25.375 25.374z" fill="#41b4e6" data-original="#41b4e6" style="" class=""/><path d="m147.051 371.574h-67c-14.014 0-25.374 11.36-25.374 25.374h67c-.001-14.013 11.36-25.374 25.374-25.374z" fill="#0091c8" data-original="#0091c8" style="" class=""/></g><g><path d="m347.693 426.442h94.132c5.761 0 11.422-1.706 16.127-5.03 28.788-20.338 47.354-54.179 46.429-92.318-1.418-58.5-49.491-106.079-108.003-106.927-61.308-.888-111.286 48.544-111.286 109.649 0 36.974 18.311 69.654 46.348 89.515 4.744 3.36 10.441 5.111 16.253 5.111z" fill="#afe6ff" data-original="#afe6ff" style="" class=""/><path d="m337.036 219.33h115.435v38.443h-115.435z" fill="#ffffff" data-original="#ffffff" style="" class=""/><path d="m337.036 219.33h42.412v38.443h-42.412z" fill="#d1f1ff" data-original="#d1f1ff" style="" class=""/><path d="m465.189 219.33h-140.871v-17.66c0-8.193 6.642-14.835 14.835-14.835h111.201c8.193 0 14.835 6.642 14.835 14.835z" fill="#97d729" data-original="#97d729" style=""/><path d="m368.66 186.835h-29.507c-8.193 0-14.835 6.642-14.835 14.835v17.66h29.507v-17.66c0-8.193 6.642-14.835 14.835-14.835z" fill="#78a91f" data-original="#78a91f" style=""/><path d="m451.818 238.327h-114.36c-31.405 19.288-52.365 53.932-52.365 93.49 0 36.974 18.311 69.654 46.348 89.515 4.742 3.36 10.44 5.111 16.252 5.111h94.132c5.761 0 11.422-1.706 16.127-5.03 28.788-20.338 47.354-54.179 46.429-92.318-.928-38.278-21.833-71.873-52.563-90.768z" fill="#fd4755" data-original="#fd4755" style=""/><path d="m327.714 331.816c0-39.558 20.96-74.201 52.365-93.49h-42.621c-31.405 19.288-52.365 53.932-52.365 93.49 0 36.974 18.311 69.654 46.348 89.515 4.742 3.36 10.44 5.111 16.252 5.111h42.621c-5.812 0-11.509-1.751-16.252-5.111-28.037-19.86-46.348-52.541-46.348-89.515z" fill="#e33442" data-original="#e33442" style=""/><path d="m441.636 363.039h-93.766c-4.275 0-7.74-3.465-7.74-7.74v-49.107c0-4.275 3.465-7.74 7.74-7.74h93.766c4.275 0 7.74 3.465 7.74 7.74v49.107c0 4.274-3.465 7.74-7.74 7.74z" fill="#fffad7" data-original="#fffad7" style="" class=""/><path d="m359.802 355.298v-49.107c0-4.275 3.465-7.74 7.74-7.74h-19.672c-4.275 0-7.74 3.465-7.74 7.74v49.107c0 4.275 3.465 7.74 7.74 7.74h19.671c-4.274.001-7.739-3.465-7.739-7.74z" fill="#ffebb4" data-original="#ffebb4" style="" class=""/></g><g><g><path d="m104.507 412.251h271.044v29.515h-271.044z" fill="#ffebb4" data-original="#ffebb4" style="" class=""/><path d="m104.507 412.251h69.525v29.515h-69.525z" fill="#f0d897" data-original="#f0d897" style="" class=""/><path d="m381.734 427.58h-283.41c-16.932 0-30.659-13.726-30.659-30.659h344.726c.001 16.933-13.725 30.659-30.657 30.659z" fill="#fffad7" data-original="#fffad7" style="" class=""/><path d="m119.21 396.921h-51.544c0 16.932 13.726 30.659 30.659 30.659h51.544c-16.933 0-30.659-13.726-30.659-30.659z" fill="#ffebb4" data-original="#ffebb4" style="" class=""/></g><path d="m97.943 358.763h277.608v38.158h-277.608z" fill="#f6a96c" data-original="#f6a96c" style="" class=""/><path d="m97.943 358.763h67.114v38.158h-67.114z" fill="#d27350" data-original="#d27350" style="" class=""/><path d="m358.744 358.763c0-11.137-9.028-20.165-20.165-20.165h-200.291c-11.137 0-20.165 9.028-20.165 20.165h173.198c5.873 0 10.633 4.761 10.633 10.633v8.708c0 4.947 3.812 9.261 8.757 9.41 5.117.154 9.313-3.948 9.313-9.031v-9.087c0-5.873 4.761-10.633 10.633-10.633z" fill="#aa321e" data-original="#aa321e" style=""/><g><path d="m170.842 338.598h-32.554c-11.137 0-20.165 9.028-20.165 20.165h32.554c0-11.137 9.028-20.165 20.165-20.165z" fill="#962314" data-original="#962314" style=""/></g></g></g></g></svg>
