<svg id="Layer_1" enable-background="new 0 0 512 512" height="512" viewBox="0 0 512 512" width="512" xmlns="http://www.w3.org/2000/svg"><g><g><path d="m512 256c0 141.385-114.615 256-256 256l-209.583-108.956c-29.247-41.608-46.417-92.321-46.417-147.044 0-81.499 38.084-154.104 97.427-200.988 26.062-20.59 89.06-45.462 89.06-45.462 22.104-6.222 45.42-9.55 69.513-9.55 141.385 0 256 114.615 256 256z" fill="#97d729"/></g><path d="m146.939 253.991h53.027v85.9h-53.027z" fill="#ff965a"/><path d="m244.476 331.185h-142.046c-30.929 0-56.002 25.073-56.002 56.002v15.85c46.316 65.893 122.91 108.963 209.572 108.963 15.172 0 30.032-1.329 44.478-3.86v-120.953c0-30.929-25.073-56.002-56.002-56.002z" fill="#fff"/><path d="m244.476 331.185h-31.609v177.193c14.023 2.379 28.432 3.622 43.133 3.622 15.172 0 30.032-1.329 44.478-3.86v-120.953c0-30.929-25.073-56.002-56.002-56.002z" fill="#e1faff"/><path d="m123.276 331.185h-20.846c-30.929 0-56.002 25.073-56.002 56.002v15.85c6.39 9.091 13.359 17.745 20.849 25.913v-41.763c-.001-30.928 25.071-56.001 55.999-56.002z" fill="#e1faff"/><path d="m135.281 319.902h76.925v17.088h-76.925z" fill="#fff"/><g fill="#373c41"><g><circle cx="151.702" cy="362.655" r="7.99"/><circle cx="195.852" cy="362.655" r="7.99"/></g><g><circle cx="151.702" cy="415.527" r="7.99"/><circle cx="195.852" cy="415.527" r="7.99"/></g><g><circle cx="151.702" cy="468.399" r="7.99"/><circle cx="195.852" cy="468.399" r="7.99"/></g><path d="m230.333 401.267h36.788v15.98h-36.788z"/></g><g><g><circle cx="341.911" cy="352.126" fill="#73c8f0" r="9.394"/></g><g><path d="m462.785 502.877c-1.734 5.434-6.783 9.123-12.487 9.123h-216.774c-5.704 0-10.753-3.689-12.487-9.123l-4.403-13.796h250.554z" fill="#41b4e6"/></g><g><path d="m256.563 502.877-4.403-13.796h-35.527l4.403 13.796c1.734 5.434 6.783 9.123 12.487 9.123h35.527c-5.703 0-10.753-3.689-12.487-9.123z" fill="#0091c8"/></g><g><path d="m342.855 358.884c-71.907 0-130.198 58.292-130.198 130.198h260.396c0-71.907-58.291-130.198-130.198-130.198z" fill="#afe6ff"/></g><g><path d="m367.193 392.689c28.548 22.431 46.884 57.271 46.884 96.393h40.423c0-50.271-38.297-91.594-87.307-96.393z" fill="#d2f0ff"/></g><g><path d="m362.708 360.388c-6.473-.99-13.103-1.504-19.853-1.504-71.907 0-130.198 58.292-130.198 130.198h39.706c0-65.157 47.861-119.134 110.345-128.694z" fill="#73c8f0"/></g><g><path d="m479.323 489.082c0 3.463-2.807 6.269-6.269 6.269h-260.397c-3.462 0-6.269-2.807-6.269-6.269 0-3.463 2.807-6.269 6.269-6.269h260.396c3.463 0 6.27 2.806 6.27 6.269z" fill="#73c8f0"/></g><g><path d="m289.151 495.351h-76.494c-3.462 0-6.269-2.807-6.269-6.269s2.807-6.269 6.269-6.269h76.494c3.462 0 6.269 2.807 6.269 6.269.001 3.462-2.807 6.269-6.269 6.269z" fill="#afe6ff"/></g></g><g><path d="m315.522 230.213 5.8 12.611 13.786 1.619c4.035.474 5.656 5.463 2.67 8.219l-10.201 9.413 2.72 13.611c.796 3.984-3.448 7.068-6.991 5.079l-12.105-6.793-12.105 6.793c-3.543 1.989-7.787-1.095-6.991-5.079l2.72-13.611-10.201-9.413c-2.986-2.755-1.365-7.745 2.67-8.219l13.786-1.619 5.8-12.611c1.698-3.692 6.944-3.692 8.642 0z" fill="#fee45a"/><g><path d="m318.203 277.791-.098.055 5.201 2.919c.281.158.566.272.853.368z" fill="#faf58c"/></g></g><g><path d="m390.509 230.211 5.8 12.611 13.786 1.619c4.035.474 5.656 5.463 2.67 8.219l-10.201 9.413 2.72 13.611c.796 3.984-3.448 7.068-6.991 5.079l-12.105-6.793-12.105 6.793c-3.543 1.989-7.787-1.095-6.991-5.079l2.72-13.611-10.201-9.413c-2.986-2.755-1.365-7.745 2.67-8.219l13.786-1.619 5.8-12.611c1.699-3.692 6.944-3.692 8.642 0z" fill="#fee45a"/><g><path d="m393.19 277.789-.098.055 5.201 2.919c.281.158.566.272.853.368z" fill="#faf58c"/></g></g><g><path d="m353.016 155.336 5.8 12.611 13.786 1.619c4.035.474 5.656 5.463 2.67 8.219l-10.201 9.413 2.72 13.611c.796 3.984-3.448 7.068-6.991 5.079l-12.105-6.793-12.105 6.793c-3.543 1.989-7.787-1.095-6.991-5.079l2.72-13.611-10.201-9.413c-2.986-2.755-1.365-7.745 2.67-8.219l13.786-1.619 5.8-12.611c1.698-3.691 6.944-3.691 8.642 0z" fill="#fee45a"/><g><path d="m355.697 202.915-.098.055 5.201 2.919c.281.158.566.272.853.368z" fill="#faf58c"/></g></g><g><path d="m428.003 155.334 5.8 12.611 13.786 1.619c4.035.474 5.656 5.463 2.67 8.219l-10.201 9.413 2.72 13.611c.796 3.984-3.448 7.068-6.991 5.079l-12.105-6.793-12.105 6.793c-3.543 1.989-7.787-1.095-6.991-5.079l2.72-13.611-10.201-9.413c-2.986-2.755-1.365-7.745 2.67-8.219l13.786-1.619 5.8-12.611c1.698-3.691 6.944-3.691 8.642 0z" fill="#fee45a"/><g><path d="m430.684 202.912-.098.055 5.201 2.919c.281.158.566.272.853.368z" fill="#faf58c"/></g></g><g><path d="m465.496 230.208 5.8 12.611 13.786 1.619c4.035.474 5.656 5.463 2.67 8.219l-10.201 9.413 2.72 13.611c.796 3.984-3.448 7.068-6.991 5.079l-12.105-6.793-12.105 6.793c-3.543 1.989-7.787-1.095-6.991-5.079l2.72-13.611-10.201-9.413c-2.986-2.755-1.365-7.745 2.67-8.219l13.786-1.619 5.8-12.611c1.699-3.691 6.944-3.691 8.642 0z" fill="#fee45a"/><g><path d="m468.177 277.787-.098.055 5.201 2.919c.281.158.566.272.853.368z" fill="#faf58c"/></g></g><g><g><path d="m173.453 305.96c-41.984 0-76.018-34.035-76.018-76.018v-76.018h152.037v76.018c-.001 41.984-34.035 76.018-76.019 76.018z" fill="#ffbe82"/></g><g><path d="m112.063 229.942v-76.018h-14.628v76.018c0 41.984 34.035 76.018 76.018 76.018 2.448 0 4.865-.132 7.253-.362-38.522-3.71-68.643-36.161-68.643-75.656z" fill="#ff965a"/></g><g><path d="m97.435 120.819h152.037v16.552h-152.037z" fill="#e1faff"/></g><g><path d="m249.471 219.563v-44.742c9.747 0 17.649 7.902 17.649 17.649v9.444c0 9.748-7.901 17.649-17.649 17.649z" fill="#ff965a"/></g><g><path d="m97.435 219.563v-44.742c-9.747 0-17.649 7.902-17.649 17.649v9.444c0 9.748 7.901 17.649 17.649 17.649z" fill="#ff965a"/></g><path d="m97.435 120.819v33.104h152.037v-33.104-106.19l-25.34-10.449-25.339 10.449-12.301-5.073c-32.836 9.243-62.995 24.87-89.057 45.459z" fill="#fff"/><path d="m122.774 37.362v83.457h25.339v-97.022c-8.722 4.06-17.183 8.585-25.339 13.565z" fill="#e1faff"/><path d="m173.453 120.819h25.339v-106.19l-12.301-5.073c-4.395 1.237-8.742 2.587-13.038 4.05z" fill="#e1faff"/><g><path d="m249.471 14.629-25.339-10.449v116.639h25.339z" fill="#e1faff"/></g><g><path d="m147.199 210.159c-3.462 0-6.269-2.807-6.269-6.269v-17.146c0-3.462 2.807-6.269 6.269-6.269s6.269 2.807 6.269 6.269v17.146c0 3.462-2.807 6.269-6.269 6.269z" fill="#373c41"/></g><g><path d="m198.399 210.159c-3.462 0-6.269-2.807-6.269-6.269v-17.146c0-3.462 2.807-6.269 6.269-6.269s6.269 2.807 6.269 6.269v17.146c0 3.462-2.807 6.269-6.269 6.269z" fill="#373c41"/></g><g><g><path d="m155.459 177.339h-18.284c-3.462 0-6.269-2.807-6.269-6.269 0-3.462 2.807-6.269 6.269-6.269h18.284c3.462 0 6.269 2.807 6.269 6.269.001 3.462-2.806 6.269-6.269 6.269z" fill="#965028"/></g></g><g><g><path d="m207.704 177.339h-18.284c-3.462 0-6.269-2.807-6.269-6.269 0-3.462 2.807-6.269 6.269-6.269h18.284c3.462 0 6.269 2.807 6.269 6.269 0 3.462-2.806 6.269-6.269 6.269z" fill="#965028"/></g></g><g><path d="m154.893 244.006c0 10.25 8.309 18.56 18.559 18.56s18.56-8.309 18.56-18.56z" fill="#fff"/></g><g><path d="m163.295 219.857c-1.559 5.492 1.274 11.474 6.69 13.277 1.09.363 2.256.559 3.468.559s2.378-.196 3.468-.559c5.417-1.803 8.249-7.786 6.69-13.277l-7.601-26.786c-.731-2.576-4.383-2.576-5.114 0z" fill="#ff965a"/></g><path d="m204.017 260.884v-4.943c0-11.052-8.991-20.042-20.043-20.042h-22.84c-11.051 0-20.042 8.991-20.042 20.042v4.131c-25.797-12.157-43.658-38.383-43.658-68.792v38.661c0 41.984 34.035 76.018 76.018 76.018s76.018-34.035 76.018-76.018v-38.661c.001 31.109-18.693 57.836-45.453 69.604zm-52.475-4.942c0-5.29 4.303-9.593 9.593-9.593h22.84c5.29 0 9.594 4.304 9.594 9.593v8.647c-6.409 1.755-13.149 2.71-20.115 2.71-7.619 0-14.971-1.134-21.911-3.22v-8.137z" fill="#a56941"/><g><path d="m112.36 236.456c-9.363-12.63-14.925-28.245-14.925-45.175v38.661c0 41.984 34.035 76.018 76.018 76.018 1.137 0 2.265-.036 3.39-.086.432-.02.863-.045 1.294-.072.661-.04 1.318-.093 1.975-.15.198-.018.396-.037.594-.055-36.379-3.503-65.246-32.645-68.346-69.141z" fill="#965028"/></g></g></g></svg>