<svg id="Layer_1" enable-background="new 0 0 512 512" height="512" viewBox="0 0 512 512" width="512" xmlns="http://www.w3.org/2000/svg"><g><circle cx="256" cy="256" fill="#97d729" r="256"/><g><g><path d="m201.998 396.205h213.123l-36.754-254.18h-176.369c-70.19 0-127.09 56.9-127.09 127.09 0 70.19 56.9 127.09 127.09 127.09z" fill="#aa321e"/></g><g><path d="m201.998 396.205h213.123l-36.754-254.18h-176.369c-70.19 0-127.09 56.9-127.09 127.09 0 70.19 56.9 127.09 127.09 127.09z" fill="#aa321e"/></g><g><path d="m201.998 340.339h205.258l7.865 54.396h-213.123c-70.19 0-127.09-56.9-127.09-127.09 0-9.339 1.036-18.432 2.948-27.198 12.457 57.115 63.291 99.892 124.142 99.892z" fill="#962c1b"/></g><g><path d="m380.077 142.025c26.782 0 50.297 21.785 60.793 53.046 10.535 31.377 28.255 59.63 50.971 83.58 11.552 12.18 18.353 27.109 18.353 43.239 0 41.043-44.028 74.315-98.34 74.315s-89.308-34.293-98.34-74.315c-26.009-115.243 29.801-179.865 66.563-179.865z" fill="#e33442"/></g><g><path d="m380.077 165.547c15.836 0 30.946 14.528 38.494 37.011 11.389 33.92 30.298 64.967 56.202 92.28 7.784 8.207 11.898 17.562 11.898 27.052 0 12.301-6.912 24.298-19.463 33.782-14.515 10.969-34.174 17.011-55.355 17.011-21.353 0-39.2-6.175-53.043-18.354-11.153-9.812-19.091-23.171-22.351-37.617-17.642-78.173 6.834-119.612 18.176-133.8 10.958-13.708 21.148-17.365 25.442-17.365m0-8.821c-7.638 0-20.143 5.432-32.331 20.677-12.138 15.183-38.377 59.341-19.891 141.25 6.543 28.993 32.468 62.85 83.999 62.85 23.088 0 44.636-6.674 60.673-18.794 14.81-11.191 22.966-25.688 22.966-40.82 0-11.791-4.951-23.245-14.319-33.122-25.015-26.375-43.263-56.325-54.24-89.017-8.776-26.136-27.169-43.024-46.857-43.024z" fill="#fff"/></g><g><circle cx="400.869" cy="319.842" fill="#fff" r="26.424"/></g><g><circle cx="400.869" cy="319.842" fill="#aa321e" r="17.732"/></g><g><path d="m331.023 297.578-2.943-8.315c1.174-.416 29.067-10.191 54.95-10.822 32.521-.794 55.505-39.807 55.733-40.202l7.637 4.415c-1.03 1.783-25.658 43.69-63.155 44.605-24.453.595-51.948 10.222-52.222 10.319z" fill="#fff"/></g><g><path d="m424.667 218.862c-.505-.202-50.821-19.951-87.941-.2l-4.144-7.788c16.962-9.025 38.858-11.908 63.325-8.339 18.293 2.668 31.493 7.918 32.046 8.141z" fill="#fff"/></g><g><path d="m376.334 371.391-3.776-7.972c.111-.053 11.886-5.728 36.134-22.868 25.822-18.253 80.323-18.586 82.631-18.591l.021 8.821c-.537.001-54.019.332-77.56 16.973-25.004 17.674-36.954 23.402-37.45 23.637z" fill="#fff"/></g></g><g><path d="m321.656 406.477h-284.22c-17.551 0-31.779-14.228-31.779-31.779v-64.14c0-17.551 14.228-31.779 31.779-31.779h284.221c17.551 0 31.779 14.228 31.779 31.779v64.14c-.001 17.551-14.229 31.779-31.78 31.779z" fill="#f5cc02"/><path d="m321.656 278.779h-130.992v127.698h130.993c17.551 0 31.779-14.228 31.779-31.779v-64.14c-.001-17.551-14.228-31.779-31.78-31.779z" fill="#ffe65a"/><g fill="#f5cc02"><circle cx="189.512" cy="317.689" r="9.966"/><circle cx="229.982" cy="357.383" r="14.755"/><circle cx="271.479" cy="317.689" r="9.966"/><circle cx="306.376" cy="375.87" r="12.919"/><circle cx="312.46" cy="334.49" r="6.835"/></g><circle cx="151.31" cy="374.358" fill="#db9d00" r="11.406"/><circle cx="46.965" cy="324.524" fill="#db9d00" r="16.801"/><circle cx="100.303" cy="324.914" fill="#db9d00" r="7.225"/><circle cx="70.764" cy="378.338" fill="#db9d00" r="6.199"/><circle cx="157.712" cy="305.28" fill="#db9d00" r="6.402"/></g></g></svg>