<svg id="Capa_1" enable-background="new 0 0 510 510" height="512" viewBox="0 0 510 510" width="512" xmlns="http://www.w3.org/2000/svg"><g id="XMLID_177_"><path id="XMLID_275_" d="m105 345c-45.562 0-82.5 36.935-82.5 82.5v82.5h82.5l7.5-82.5z" fill="#8ee26b"/><path id="XMLID_278_" d="m37.5 277.5c0 37.219 30.279 67.5 67.5 67.5l7.5-67.5-7.5-67.5c-37.219 0-67.5 30.279-67.5 67.5z" fill="#ffcebf"/><path id="XMLID_253_" d="m202.5 315c0 33.083 26.915 60 60 60l15-60-15-60c-33.083 0-60 26.915-60 60z" fill="#ffcebf"/><path id="XMLID_252_" d="m262.5 375c-41.42 0-75 33.577-75 75l-15 30 15 30h75l15-67.5z" fill="#fd676a"/><path id="XMLID_279_" d="m367.5 0c-66.166 0-120 53.83-120 120 0 66.166 53.83 120 120 120 0-5.314 15-120 15-120s-15-109.85-15-120z" fill="#e6f2ff"/><path id="XMLID_276_" d="m367.5 0v240c66.166 0 120-53.83 120-120 0-66.166-53.83-120-120-120z" fill="#cdf"/><path id="XMLID_280_" d="m352.5 105c-10.492 0-19.508 0-30 0v30h30v30h15l15-45-15-45c-5.246 0-9.754 0-15 0z" fill="#fd676a"/><path id="XMLID_222_" d="m187.5 427.5c0-22.782-9.234-43.407-24.164-58.336-26.068-26.068-57.46-23.978-58.336-24.164v165h82.5c0-9.975 0-72.459 0-82.5z" fill="#00cb75"/><path id="XMLID_256_" d="m172.5 277.5c0-37.219-30.279-67.5-67.5-67.5v135c37.219 0 67.5-30.279 67.5-67.5z" fill="#fcaf9d"/><path id="XMLID_217_" d="m337.5 450c0-20.711-8.395-39.461-21.967-53.033-23.699-23.698-52.237-21.798-53.033-21.967v135h75c0-7.259 0-52.693 0-60z" fill="#e4336d"/><path id="XMLID_219_" d="m322.5 315c0-33.083-26.915-60-60-60v120c33.083 0 60-26.915 60-60z" fill="#fcaf9d"/><path id="XMLID_277_" d="m382.5 165c0-10.492 0-19.508 0-30h30c0-10.492 0-19.508 0-30-10.492 0-19.508 0-30 0 0-10.492 0-19.508 0-30-5.246 0-9.754 0-15 0v90z" fill="#e4336d"/></g></svg>